<?xml version="1.0" encoding="iso-8859-1"?>
<!-- Generator: Adobe Illustrator 16.0.0, SVG Export Plug-In . SVG Version: 6.00 Build 0)  -->
<!DOCTYPE svg PUBLIC "-//W3C//DTD SVG 1.1//EN" "http://www.w3.org/Graphics/SVG/1.1/DTD/svg11.dtd">
<svg version="1.1" id="Capa_1" xmlns="http://www.w3.org/2000/svg" xmlns:xlink="http://www.w3.org/1999/xlink" x="0px" y="0px"
	 width="65.644px" height="65.645px" viewBox="0 0 65.644 65.645" style="enable-background:new 0 0 65.644 65.645;"
	 xml:space="preserve">
<g>
	<g>
		<path fill="white" d="M18.626,50.494c-2.461,0-4.859,0.253-7.206,0.652c-0.163,4.019-0.183,9.874,1.743,12.148
			c2.712,3.203,8.699,3.203,11.106-0.444c2.387-3.62,0.804-8.826,0.136-11.924C22.508,50.674,20.591,50.494,18.626,50.494z"/>
		<path fill="white" d="M20.182,14.017C13.978,14.236,7.7,28.76,9.378,36.207c0.604,2.669,2.191,8.176,2.191,11.388
			c0,0.39-0.03,0.999-0.065,1.735c2.327-0.374,4.694-0.622,7.124-0.622c1.858,0,3.68,0.15,5.478,0.369
			c-0.178-1.738-0.229-4.428,0.386-7.179c0.829-3.721,2.569-7.591,3.284-9.562C29.233,28.324,26.386,13.797,20.182,14.017z"/>
		<path fill="white" d="M47.016,37.062c-2.01,0-3.972,0.188-5.906,0.452c-0.718,3.144-1.971,7.934,0.263,11.32
			c2.406,3.647,8.395,3.647,11.106,0.445c1.832-2.165,1.902-7.582,1.766-11.565C51.891,37.318,49.484,37.062,47.016,37.062z"/>
		<path fill="white" d="M45.46,0.002c-6.205-0.22-9.052,14.307-7.592,18.321c0.717,1.969,2.455,5.842,3.283,9.563
			c0.687,3.076,0.545,6.098,0.319,7.77c1.82-0.226,3.661-0.381,5.545-0.381c2.44,0,4.815,0.249,7.151,0.628
			c-0.048-1.009-0.094-1.832-0.094-2.324c0-3.212,1.588-8.719,2.192-11.388C57.942,14.748,51.663,0.221,45.46,0.002z"/>
	</g>
</g>
<g>
</g>
<g>
</g>
<g>
</g>
<g>
</g>
<g>
</g>
<g>
</g>
<g>
</g>
<g>
</g>
<g>
</g>
<g>
</g>
<g>
</g>
<g>
</g>
<g>
</g>
<g>
</g>
<g>
</g>
</svg>
