<?xml version="1.0" encoding="iso-8859-1"?>
<!-- Generator: Adobe Illustrator 19.0.0, SVG Export Plug-In . SVG Version: 6.00 Build 0)  -->
<svg version="1.1" id="Capa_1" xmlns="http://www.w3.org/2000/svg" xmlns:xlink="http://www.w3.org/1999/xlink" x="0px" y="0px"
	 viewBox="0 0 511.992 511.992" style="enable-background:new 0 0 511.992 511.992;" xml:space="preserve">
<g>
	<g>
		<path fill="white" d="M402.885,311.454V142.243c0-7.009-2.955-13.748-8.1-18.499l-91.094-84.086c-5.019-4.633-11.633-6.983-18.373-6.648
			c-6.824,0.353-13.077,3.374-17.601,8.503L123.661,205.017c-9.946,13.262-8.813,31.543,2.703,43.461l220.118,227.974
			c1.578,1.637,3.76,2.56,6.035,2.56h134.295c13.883,0,25.18-11.298,25.18-25.18v-25.18C512,366.7,463.771,315.777,402.885,311.454z
			 M280.316,52.617c1.502-1.712,3.584-2.719,5.867-2.829c2.266-0.159,4.449,0.671,6.119,2.216l91.094,84.086
			c1.721,1.578,2.703,3.827,2.703,6.161v23.703L274.315,61.615c-0.369-0.353-0.831-0.504-1.251-0.772L280.316,52.617z
			 M183.539,162.437l28.764,28.764c9.619,9.619,14.915,22.41,14.915,36.025c0,13.354-5.12,25.902-14.403,35.454l-61.457-63.731
			L183.539,162.437z M495.213,453.849c0,4.625-3.769,8.393-8.393,8.393H356.083L138.441,236.837
			c-5.758-5.959-6.32-15.1-1.763-21.219l3.55-4.029l223.039,231.298c1.578,1.637,3.76,2.568,6.043,2.568h125.902V453.849z
			 M372.879,428.669L224.483,274.775c26.078-26.439,25.986-69.145-0.311-95.442l-29.511-29.511l67.626-76.741
			c0.218,0.26,0.327,0.571,0.579,0.806l123.233,115.015v21.538h-50.361c-4.633,0-8.393,3.76-8.393,8.393v33.574
			c0,4.633,3.76,8.393,8.393,8.393h50.361v16.787h-50.361c-4.633,0-8.393,3.76-8.393,8.393v33.574c0,4.633,3.76,8.393,8.393,8.393
			h58.754c55.539,0,100.721,45.182,100.721,100.721H372.879z M386.098,227.226v16.787h-41.967v-16.787H386.098z M386.098,294.374
			L386.098,294.374v16.787h-41.967v-16.787H386.098z"/>
	</g>
</g>
<g>
	<g>
		<path fill="white" d="M92.328,260.8H8.393C3.76,260.8,0,264.56,0,269.193s3.76,8.393,8.393,8.393h83.934c4.633,0,8.393-3.76,8.393-8.393
			S96.961,260.8,92.328,260.8z"/>
	</g>
</g>
<g>
	<g>
		<path fill="white" d="M142.689,336.341H8.393c-4.633,0-8.393,3.76-8.393,8.393c0,4.633,3.76,8.393,8.393,8.393h134.295
			c4.633,0,8.393-3.76,8.393-8.393C151.082,340.101,147.322,336.341,142.689,336.341z"/>
	</g>
</g>
<g>
	<g>
		<path fill="white" d="M193.049,411.882H8.393c-4.633,0-8.393,3.76-8.393,8.393s3.76,8.393,8.393,8.393h184.656c4.633,0,8.393-3.76,8.393-8.393
			S197.682,411.882,193.049,411.882z"/>
	</g>
</g>
<g>
</g>
<g>
</g>
<g>
</g>
<g>
</g>
<g>
</g>
<g>
</g>
<g>
</g>
<g>
</g>
<g>
</g>
<g>
</g>
<g>
</g>
<g>
</g>
<g>
</g>
<g>
</g>
<g>
</g>
</svg>
