<?xml version="1.0" encoding="iso-8859-1"?>
<!-- Generator: Adobe Illustrator 18.0.0, SVG Export Plug-In . SVG Version: 6.00 Build 0)  -->
<!DOCTYPE svg PUBLIC "-//W3C//DTD SVG 1.1//EN" "http://www.w3.org/Graphics/SVG/1.1/DTD/svg11.dtd">
<svg version="1.1" id="Capa_1" xmlns="http://www.w3.org/2000/svg" xmlns:xlink="http://www.w3.org/1999/xlink" x="0px" y="0px"
	 viewBox="0 0 297 297" style="enable-background:new 0 0 297 297;" xml:space="preserve">
<g>
	<path fill="white" d="M289.631,110.105C279.391,84.502,259.469,70.4,233.535,70.4c-15.927,0-34.5,5.248-55.2,15.6
		c-59.786,29.893-107.476,36.168-136.954,36.168c-18.079,0-28.32-2.434-28.387-2.449c-3.813-0.951-7.832,0.31-10.415,3.267
		c-2.581,2.959-3.289,7.115-1.831,10.762c0.385,0.963,9.688,23.826,32.512,46.65c21.077,21.076,58.18,46.201,115.242,46.201
		c37.502,0,74.684-12.625,107.525-36.512c24.714-17.975,38.314-35.938,38.882-36.693c1.356-1.811,2.091-4.01,2.091-6.273
		C297,146.363,296.92,128.332,289.631,110.105z M187.688,104.707c0.256-0.127,0.507-0.246,0.763-0.373
		c18.009,16.924,23.707,44.313,13.395,66.994c-9.653,21.232-31.098,34.33-53.613,34.328c-5.244,0-10.552-0.711-15.775-2.195
		c-27.994-7.955-46.19-36.449-41.837-65.182C117.851,133.181,150.671,123.217,187.688,104.707z M29.461,142.75
		c3.569,0.205,7.551,0.332,11.92,0.332c8.068,0,17.397-0.434,27.859-1.598c-1.193,17.643,3.739,34.9,13.155,49.217
		c-12.263-6.238-23.53-14.404-33.743-24.494C40.314,157.967,34,149.66,29.461,142.75z M215.332,190.133
		c2.076-3.207,3.939-6.592,5.556-10.148c12.707-27.953,7.506-61.156-11.835-84.219c9.021-2.953,17.213-4.449,24.482-4.449
		c36.123,0,41.58,39.928,42.403,52.279C269.288,151.459,248.057,174.445,215.332,190.133z"/>
	<circle fill="white" cx="148.502" cy="147.12" r="17.255"/>
</g>
<g>
</g>
<g>
</g>
<g>
</g>
<g>
</g>
<g>
</g>
<g>
</g>
<g>
</g>
<g>
</g>
<g>
</g>
<g>
</g>
<g>
</g>
<g>
</g>
<g>
</g>
<g>
</g>
<g>
</g>
</svg>
