<?xml version="1.0" encoding="iso-8859-1"?>
<!-- Generator: Adobe Illustrator 19.0.0, SVG Export Plug-In . SVG Version: 6.00 Build 0)  -->
<svg version="1.1" id="Layer_1" xmlns="http://www.w3.org/2000/svg" xmlns:xlink="http://www.w3.org/1999/xlink" x="0px" y="0px"
	 viewBox="0 0 386.478 386.478" style="enable-background:new 0 0 386.478 386.478;" xml:space="preserve">
<g>
	<g>
		<path d="M378.248,322.469L135.24,80.405h152.928c15.44,0,29.052-14.444,29.052-29.88V26.797c0-7.452-3.444-13.672-8.752-18.98
			c-5.296-5.292-12.844-7.412-20.3-7.412H28.1c-7.476,0-14.52,2.14-19.812,7.46C2.948,13.181,0.008,19.809,0,27.297l0.008,259.792
			c0,7.448,2.916,15.132,8.22,20.436c5.3,5.296,12.324,8.88,19.772,8.88h23.732c15.436,0,29.488-14.08,29.488-29.516V135.757
			l241.4,242.136c5.264,5.276,11.932,8.18,19.424,8.18c7.5,0,14.348-2.904,19.612-8.18l16.68-16.296
			C389.252,350.685,389.16,333.385,378.248,322.469z"/>
	</g>
</g>
<g>
</g>
<g>
</g>
<g>
</g>
<g>
</g>
<g>
</g>
<g>
</g>
<g>
</g>
<g>
</g>
<g>
</g>
<g>
</g>
<g>
</g>
<g>
</g>
<g>
</g>
<g>
</g>
<g>
</g>
</svg>
