<?xml version="1.0" encoding="iso-8859-1"?>
<!-- Generator: Adobe Illustrator 17.1.0, SVG Export Plug-In . SVG Version: 6.00 Build 0)  -->
<!DOCTYPE svg PUBLIC "-//W3C//DTD SVG 1.1//EN" "http://www.w3.org/Graphics/SVG/1.1/DTD/svg11.dtd">
<svg version="1.1" id="Capa_1" xmlns="http://www.w3.org/2000/svg" xmlns:xlink="http://www.w3.org/1999/xlink" x="0px" y="0px"
	 viewBox="0 0 502.738 502.738" style="enable-background:new 0 0 502.738 502.738;" xml:space="preserve">
<path fill="white" d="M497.588,231.909c-25.616-44.8-63.561-81.419-109.958-106.194l61.042-61.042c2.929-2.929,2.929-7.678,0-10.606
	c-2.929-2.929-7.678-2.929-10.606,0L212.179,279.953c-6.042-8.253-9.31-18.181-9.31-28.583c0-26.743,21.757-48.5,48.5-48.5
	c4.719,0,9.381,0.675,13.855,2.006c3.971,1.181,8.146-1.08,9.327-5.05c1.181-3.97-1.08-8.146-5.05-9.327
	c-5.863-1.744-11.964-2.628-18.132-2.628c-35.014,0-63.5,28.486-63.5,63.5c0,14.411,4.798,28.122,13.614,39.28l-23.437,23.437
	c-14.976-17.475-23.177-39.531-23.177-62.717c0-53.21,43.29-96.5,96.5-96.5c15.708,0,30.683,3.652,44.511,10.854
	c3.674,1.913,8.204,0.486,10.117-3.188c1.914-3.673,0.486-8.203-3.187-10.116c-15.764-8.211-33.552-12.551-51.44-12.551
	c-61.481,0-111.5,50.019-111.5,111.5c0,27.182,9.74,53.032,27.533,73.361l-41.179,41.179
	c-45.745-23.452-83.101-58.89-108.052-102.525c-4.237-7.41-4.241-16.61-0.01-24.011c46.724-81.731,136.083-132.504,233.208-132.504
	c29.332,0,58.146,4.547,85.645,13.515c3.938,1.284,8.171-0.867,9.456-4.805c1.284-3.938-0.867-8.172-4.805-9.456
	c-29.002-9.458-59.381-14.254-90.295-14.254c-102.493,0-196.842,53.667-246.23,140.06c-6.855,11.993-6.851,26.898,0.011,38.901
	c25.616,44.8,63.562,81.419,109.958,106.194l-61.042,61.042c-2.929,2.929-2.929,7.678,0,10.606c1.464,1.464,3.384,2.197,5.303,2.197
	s3.839-0.732,5.303-2.197l225.887-225.887c6.042,8.253,9.31,18.181,9.31,28.583c0,26.743-21.757,48.5-48.5,48.5
	c-4.729,0-9.399-0.678-13.881-2.014c-3.969-1.184-8.146,1.076-9.33,5.045c-1.183,3.97,1.075,8.146,5.045,9.33
	c5.874,1.751,11.985,2.639,18.167,2.639c35.014,0,63.5-28.486,63.5-63.5c0-14.412-4.798-28.122-13.613-39.28l23.437-23.437
	c14.976,17.475,23.176,39.532,23.176,62.717c0,53.21-43.29,96.5-96.5,96.5c-15.707,0-30.683-3.652-44.511-10.854
	c-3.672-1.914-8.203-0.486-10.116,3.188c-1.914,3.674-0.486,8.203,3.187,10.116c15.765,8.211,33.552,12.551,51.44,12.551
	c61.481,0,111.5-50.019,111.5-111.5c0-27.182-9.741-53.032-27.532-73.361l41.179-41.179
	c45.746,23.453,83.101,58.891,108.051,102.525c4.237,7.41,4.241,16.611,0.01,24.011c-46.723,81.731-136.083,132.504-233.208,132.504
	c-31.541,0-62.401-5.241-91.722-15.577c-3.908-1.376-8.19,0.674-9.566,4.58c-1.377,3.907,0.673,8.19,4.58,9.567
	c30.928,10.902,63.465,16.43,96.709,16.43c102.493,0,196.843-53.668,246.23-140.059
	C504.455,258.818,504.451,243.911,497.588,231.909z"/>
<g>
</g>
<g>
</g>
<g>
</g>
<g>
</g>
<g>
</g>
<g>
</g>
<g>
</g>
<g>
</g>
<g>
</g>
<g>
</g>
<g>
</g>
<g>
</g>
<g>
</g>
<g>
</g>
<g>
</g>
</svg>
