<svg id="Layer_1" enable-background="new 0 0 512 512" height="512" viewBox="0 0 512 512" width="512" xmlns="http://www.w3.org/2000/svg">
    <g>
        <path fill="white" d="m490.007 217.504-69.27-43.111c-48.764-30.351-105.73-46.393-164.737-46.393s-115.973 16.042-164.737 46.393l-69.27 43.111c-13.771 8.571-21.993 22.962-21.993 38.496s8.222 29.925 21.993 38.496l69.27 43.111c48.764 30.351 105.73 46.393 164.737 46.393s115.973-16.042 164.737-46.393l69.271-43.111c13.77-8.571 21.992-22.962 21.992-38.496s-8.222-29.925-21.993-38.496zm-234.007 118.496c-44.112 0-80-35.888-80-80s35.888-80 80-80 80 35.888 80 80-35.888 80-80 80zm-217.098-68.672c-4.386-2.73-6.902-6.859-6.902-11.328s2.516-8.598 6.901-11.328l69.27-43.111c23.989-14.93 50.218-25.8 77.467-32.629-25.38 20.549-41.638 51.943-41.638 87.068s16.258 66.519 41.638 87.069c-27.249-6.829-53.478-17.699-77.467-32.629zm434.197 0-69.27 43.111c-23.989 14.93-50.217 25.8-77.467 32.629 25.38-20.549 41.638-51.943 41.638-87.068s-16.258-66.519-41.638-87.069c27.249 6.829 53.478 17.699 77.467 32.629l69.269 43.111c4.386 2.73 6.902 6.86 6.902 11.329s-2.516 8.599-6.901 11.328z"/>
        <circle fill="white" cx="256" cy="256" r="32"/>
    </g>
</svg>