<?xml version="1.0" encoding="iso-8859-1"?>
<!-- Generator: Adobe Illustrator 19.0.0, SVG Export Plug-In . SVG Version: 6.00 Build 0)  -->
<svg version="1.1" id="Capa_1" xmlns="http://www.w3.org/2000/svg" xmlns:xlink="http://www.w3.org/1999/xlink" x="0px" y="0px"
	 viewBox="0 0 383.869 383.869" style="enable-background:new 0 0 383.869 383.869;" xml:space="preserve">
<path fill="white" d="M269.976,123.38H50.547l56.947-64.784c5.747-6.269,5.224-16.196-1.567-21.943
	c-6.269-5.747-16.196-5.224-21.943,1.567L4.049,128.604c0,0.522-0.522,0.522-0.522,1.045c-0.522,0.522-0.522,0.522-1.045,1.045
	c-0.522,0.522-0.522,1.045-0.522,1.567c0,0.522-0.522,0.522-0.522,1.045c0,0.522-0.522,1.045-0.522,1.567
	c0,0.522,0,0.522-0.522,1.045c-0.522,2.09-0.522,4.18,0,5.747c0,0.522,0,0.522,0.522,1.045c0,0.522,0.522,1.045,0.522,1.567
	s0.522,0.522,0.522,1.045c0,0.522,0.522,1.045,0.522,1.567s0.522,0.522,1.045,1.045c0,0.522,0.522,0.522,0.522,1.045l79.412,90.906
	c3.135,3.657,7.314,5.225,12.016,5.225c3.657,0,7.314-1.045,10.449-3.657c6.269-5.747,7.314-15.673,1.567-21.943l-56.947-64.784
	h219.429c45.453,0,82.547,37.094,82.547,82.547s-37.094,82.547-82.547,82.547H36.963c-8.882,0-15.673,6.792-15.673,15.673
	s6.792,15.673,15.673,15.673h233.012c62.694,0,113.894-51.2,113.894-113.894S332.669,123.38,269.976,123.38z"/>
<g>
</g>
<g>
</g>
<g>
</g>
<g>
</g>
<g>
</g>
<g>
</g>
<g>
</g>
<g>
</g>
<g>
</g>
<g>
</g>
<g>
</g>
<g>
</g>
<g>
</g>
<g>
</g>
<g>
</g>
</svg>
