<svg id="Capa_1" enable-background="new 0 0 512 512" height="512" viewBox="0 0 512 512" width="512" xmlns="http://www.w3.org/2000/svg"><g><path d="m256 182.721c-41.493 0-75.25 33.757-75.25 75.25s33.757 75.25 75.25 75.25 75.25-33.757 75.25-75.25-33.757-75.25-75.25-75.25zm0 120.5c-24.951 0-45.25-20.299-45.25-45.25s20.299-45.25 45.25-45.25 45.25 20.299 45.25 45.25-20.299 45.25-45.25 45.25z"/><path d="m508.175 247.964c-1.15-1.284-28.674-31.804-73.237-62.585-59.58-41.155-121.456-62.908-178.938-62.908s-119.357 21.753-178.938 62.908c-44.563 30.782-72.087 61.301-73.237 62.585-5.1 5.696-5.1 14.316 0 20.013 1.15 1.284 28.674 31.804 73.237 62.585 59.581 41.155 121.457 62.908 178.938 62.908s119.357-21.753 178.938-62.908c44.563-30.782 72.087-61.301 73.237-62.585 5.1-5.696 5.1-14.316 0-20.013zm-252.175 115.507c-64.638 0-123.383-31.091-161.281-57.174-26.916-18.524-47.474-37.25-58.775-48.32 28.709-28.073 117.236-105.506 220.056-105.506 64.638 0 123.383 31.091 161.281 57.174 26.916 18.524 47.472 37.248 58.775 48.32-28.709 28.073-117.236 105.506-220.056 105.506z"/><path d="m256 242.971c-7.846 0-15.363 6.899-15 15 .364 8.127 6.591 15 15 15 7.846 0 15.363-6.899 15-15-.364-8.127-6.591-15-15-15z"/><path d="m256 100.221c8.284 0 15-6.716 15-15v-50.25c0-8.284-6.716-15-15-15s-15 6.716-15 15v50.25c0 8.284 6.716 15 15 15z"/><path d="m151.813 106.585c2.894 4.318 7.64 6.651 12.474 6.651 2.871 0 5.773-.823 8.337-2.541 6.882-4.612 8.722-13.929 4.11-20.811l-28.774-42.935c-4.611-6.881-13.93-8.722-20.811-4.11-6.882 4.612-8.722 13.929-4.11 20.811z"/><path d="m339.376 110.695c2.564 1.719 5.466 2.541 8.337 2.541 4.834 0 9.581-2.333 12.475-6.651l28.773-42.935c4.611-6.882 2.771-16.199-4.11-20.811-6.882-4.613-16.199-2.772-20.812 4.11l-28.773 42.935c-4.612 6.882-2.772 16.199 4.11 20.811z"/><path d="m256 411.779c-8.284 0-15 6.716-15 15v50.25c0 8.284 6.716 15 15 15s15-6.716 15-15v-50.25c0-8.284-6.716-15-15-15z"/><path d="m360.187 405.415c-4.612-6.882-13.931-8.722-20.812-4.11-6.882 4.612-8.722 13.929-4.11 20.811l28.773 42.935c2.894 4.318 7.64 6.651 12.475 6.651 2.871 0 5.773-.823 8.337-2.541 6.882-4.612 8.722-13.929 4.11-20.811z"/><path d="m172.624 401.305c-6.881-4.612-16.198-2.772-20.811 4.11l-28.774 42.935c-4.612 6.882-2.772 16.199 4.11 20.811 2.564 1.719 5.466 2.541 8.337 2.541 4.834 0 9.581-2.333 12.474-6.651l28.774-42.935c4.613-6.882 2.772-16.199-4.11-20.811z"/></g></svg>